<svg width="14" height="14" viewBox="0 0 14 14" fill="none" xmlns="http://www.w3.org/2000/svg">
<path fill-rule="evenodd" clip-rule="evenodd" d="M13.3333 4.19562C13.3333 6.5128 11.4472 8.39125 9.1205 8.39125C8.69595 8.39125 7.72928 8.29367 7.25901 7.90338L6.67115 8.48884C6.32553 8.83306 6.41886 8.9344 6.57261 9.10133C6.63676 9.17099 6.71143 9.25207 6.76912 9.36697C6.76912 9.36697 7.25899 10.05 6.76912 10.733C6.4752 11.1233 5.65223 11.6697 4.71169 10.733L4.51575 10.9281C4.51575 10.9281 5.10358 11.6111 4.61372 12.2942C4.3198 12.6844 3.53602 13.0747 2.85021 12.3917L2.1644 13.0747C1.69413 13.5431 1.11937 13.2699 0.890774 13.0747L0.302937 12.4893C-0.245711 11.9429 0.0743336 11.351 0.302937 11.1233L5.39753 6.0495C5.39753 6.0495 4.90766 5.26892 4.90766 4.19562C4.90766 1.87844 6.79381 0 9.1205 0C11.4472 0 13.3333 1.87844 13.3333 4.19562ZM9.12063 5.65928C9.93227 5.65928 10.5902 5.004 10.5902 4.19569C10.5902 3.38737 9.93227 2.7321 9.12063 2.7321C8.309 2.7321 7.65104 3.38737 7.65104 4.19569C7.65104 5.004 8.309 5.65928 9.12063 5.65928Z" fill="#FAFAFA"/>
</svg>
