<svg width="14" height="12" viewBox="0 0 14 12" fill="none" xmlns="http://www.w3.org/2000/svg">
<path d="M0 8.75132V1.3208C0 0.588687 0.590867 -0.00605303 1.3216 0.038858C1.97252 0.0788632 2.74233 0.157939 3.33333 0.313895C4.03281 0.498472 4.86407 0.891605 5.5215 1.23924C5.7262 1.34748 5.94388 1.42256 6.16667 1.46489L6.16667 11.584C5.96471 11.5395 5.76767 11.4676 5.58161 11.3684C4.91529 11.0132 4.0543 10.6014 3.33333 10.4112C2.74886 10.2569 1.98952 10.1779 1.34324 10.1375C0.60403 10.0912 0 9.49197 0 8.75132Z" fill="#FAFAFA"/>
<path d="M7.16667 11.584C7.36863 11.5395 7.56566 11.4676 7.75172 11.3684C8.41804 11.0132 9.27903 10.6014 10 10.4112C10.5845 10.2569 11.3438 10.1779 11.9901 10.1375C12.7293 10.0912 13.3333 9.49197 13.3333 8.75132V1.27773C13.3333 0.562763 12.7692 -0.024126 12.0546 0.000763574C11.3023 0.0269718 10.3646 0.104951 9.66667 0.313895C9.06158 0.495041 8.35687 0.858388 7.78256 1.19077C7.58824 1.30323 7.38055 1.38583 7.16667 1.43821L7.16667 11.584Z" fill="#FAFAFA"/>
</svg>
