<svg width="15" height="12" viewBox="0 0 15 12" fill="none" xmlns="http://www.w3.org/2000/svg">
<path d="M4.24961 0.799266C5.50081 0.298639 6.24718 0 7.16667 0C8.08615 0 8.83253 0.298638 10.0837 0.799264L12.0634 1.59113C12.6998 1.84568 13.2152 2.05184 13.569 2.23734C13.7481 2.33122 13.9216 2.43765 14.0553 2.56596C14.1928 2.69779 14.3333 2.89772 14.3333 3.16667C14.3333 3.43562 14.1928 3.63555 14.0553 3.76738C13.9216 3.89568 13.7481 4.00211 13.569 4.09599C13.2152 4.28149 12.6998 4.48766 12.0634 4.7422L10.0837 5.53407C8.83252 6.0347 8.08615 6.33333 7.16667 6.33333C6.24718 6.33333 5.50081 6.0347 4.24962 5.53407L2.26997 4.7422C1.63358 4.48766 1.11814 4.28149 0.76431 4.09599C0.585243 4.00211 0.41177 3.89568 0.278005 3.76738C0.140565 3.63555 0 3.43562 0 3.16667C0 2.89772 0.140565 2.69779 0.278004 2.56596C0.411769 2.43765 0.585243 2.33122 0.76431 2.23734C1.11814 2.05184 1.63358 1.84567 2.26997 1.59113L4.24961 0.799266Z" fill="#FAFAFA"/>
<path fill-rule="evenodd" clip-rule="evenodd" d="M0.833684 5.46097C0.833684 5.46097 0.833684 5.46097 0.833684 5.46097L0.83275 5.46014L0.835077 5.46216C0.838012 5.4647 0.843481 5.46939 0.851482 5.47607C0.867487 5.48944 0.893613 5.51075 0.929858 5.53876C1.00236 5.59479 1.11526 5.67753 1.26853 5.77693C1.5751 5.97575 2.04279 6.24097 2.67158 6.49248L4.54389 7.24141C5.89378 7.78136 6.45973 8 7.16667 8C7.87361 8 8.43955 7.78136 9.78944 7.24141L11.6618 6.49248C12.2905 6.24097 12.7582 5.97575 13.0648 5.77693C13.2181 5.67753 13.331 5.59479 13.4035 5.53876C13.4397 5.51075 13.4658 5.48944 13.4819 5.47607C13.4899 5.46939 13.4953 5.4647 13.4983 5.46216L13.4996 5.46097C13.5 5.46065 13.5004 5.46033 13.5007 5.46001C13.7063 5.27682 14.0215 5.29432 14.2055 5.49946C14.3899 5.70501 14.3728 6.02113 14.1672 6.20552L13.8333 5.83333C14.1672 6.20552 14.1673 6.20543 14.1672 6.20552L14.1663 6.20635L14.1651 6.2074L14.162 6.21013L14.1529 6.2181C14.1455 6.22452 14.1354 6.2331 14.1228 6.24369C14.0974 6.26487 14.0615 6.29409 14.015 6.33002C13.922 6.40188 13.7866 6.50069 13.6089 6.61594C13.2535 6.84643 12.7283 7.14291 12.0331 7.42096L10.1608 8.16988C10.1349 8.18025 10.1092 8.19054 10.0837 8.20074C8.83253 8.70136 8.08615 9 7.16667 9C6.24718 9 5.50081 8.70136 4.24962 8.20074C4.22412 8.19054 4.19842 8.18025 4.1725 8.16988L2.30019 7.42096C1.60506 7.14291 1.07981 6.84643 0.724412 6.61594C0.546703 6.50069 0.411368 6.40188 0.318378 6.33002C0.271878 6.29409 0.235945 6.26487 0.210577 6.24369C0.197892 6.2331 0.187846 6.22452 0.180438 6.2181L0.171304 6.21013L0.168219 6.2074L0.167048 6.20635L0.166331 6.20571C0.166226 6.20562 0.166124 6.20552 0.5 5.83333L0.166331 6.20571C-0.0392242 6.02132 -0.0565862 5.70501 0.127809 5.49946C0.311833 5.29431 0.627165 5.27692 0.83275 5.46014M0.833684 5.46097C0.833684 5.46097 0.833684 5.46097 0.833684 5.46097V5.46097ZM0.832639 8.1267C0.627054 7.94348 0.311834 7.96098 0.127809 8.16612L0.832639 8.1267ZM0.832639 8.1267L0.835077 8.12883C0.838012 8.13137 0.84348 8.13606 0.851482 8.14274C0.867486 8.1561 0.893613 8.17742 0.929858 8.20543C1.00236 8.26146 1.11526 8.3442 1.26853 8.4436C1.5751 8.64242 2.04279 8.90763 2.67158 9.15915L4.54389 9.90807C5.89378 10.448 6.45973 10.6667 7.16667 10.6667C7.87361 10.6667 8.43955 10.448 9.78944 9.90807L11.6618 9.15915C12.2905 8.90763 12.7582 8.64242 13.0648 8.4436C13.2181 8.3442 13.331 8.26146 13.4035 8.20543C13.4397 8.17742 13.4658 8.1561 13.4819 8.14274C13.4899 8.13606 13.4953 8.13137 13.4983 8.12883L13.4996 8.12764C13.5 8.12731 13.5004 8.12699 13.5007 8.12667C13.7063 7.94349 14.0215 7.96099 14.2055 8.16612C14.3899 8.37168 14.3728 8.6878 14.1672 8.87219L13.8444 8.51236C14.1672 8.87219 14.1673 8.8721 14.1672 8.87219L14.1663 8.87302L14.1651 8.87406L14.162 8.87679L14.1529 8.88477C14.1455 8.89118 14.1354 8.89977 14.1228 8.91036C14.0974 8.93154 14.0615 8.96075 14.015 8.99669C13.922 9.06855 13.7866 9.16736 13.6089 9.28261C13.2535 9.51309 12.7283 9.80957 12.0331 10.0876L10.1608 10.8366C10.1349 10.8469 10.1092 10.8572 10.0837 10.8674C8.83253 11.368 8.08615 11.6667 7.16667 11.6667C6.24718 11.6667 5.50081 11.368 4.24962 10.8674C4.22412 10.8572 4.19842 10.8469 4.1725 10.8366L2.30019 10.0876C1.60506 9.80957 1.07981 9.51309 0.724412 9.28261C0.546703 9.16736 0.411368 9.06855 0.318378 8.99669C0.271878 8.96075 0.235945 8.93154 0.210577 8.91036C0.197892 8.89977 0.187846 8.89118 0.180438 8.88477L0.171304 8.87679L0.168219 8.87406L0.167048 8.87302L0.166331 8.87238C0.166226 8.87228 0.166124 8.87219 0.5 8.5L0.166331 8.87238C-0.0392242 8.68798 -0.0565862 8.37168 0.127809 8.16612" fill="#FAFAFA"/>
</svg>
