<svg width="14" height="12" viewBox="0 0 14 12" fill="none" xmlns="http://www.w3.org/2000/svg">
<path fill-rule="evenodd" clip-rule="evenodd" d="M12.7339 3.33569C12.6961 3.3333 12.655 3.33332 12.6124 3.33334L12.6017 3.33334H10.9294C9.55096 3.33334 8.37148 4.41838 8.37148 5.83334C8.37148 7.2483 9.55096 8.33334 10.9294 8.33334H12.6017L12.6124 8.33334C12.655 8.33336 12.6961 8.33337 12.7339 8.33099C13.2938 8.29563 13.789 7.85747 13.8306 7.24548C13.8334 7.20535 13.8334 7.16209 13.8333 7.122L13.8333 7.11112V4.55556L13.8333 4.54468C13.8334 4.50459 13.8334 4.46133 13.8306 4.4212C13.789 3.8092 13.2938 3.37105 12.7339 3.33569ZM10.7811 6.5C11.136 6.5 11.4237 6.20152 11.4237 5.83333C11.4237 5.46514 11.136 5.16667 10.7811 5.16667C10.4262 5.16667 10.1385 5.46514 10.1385 5.83333C10.1385 6.20152 10.4262 6.5 10.7811 6.5Z" fill="#FAFAFA"/>
<path fill-rule="evenodd" clip-rule="evenodd" d="M12.6119 9.33334C12.7113 9.33076 12.7866 9.42283 12.7596 9.51853C12.6258 9.9935 12.4134 10.3983 12.0725 10.7392C11.5736 11.2381 10.941 11.4595 10.1593 11.5646C9.39987 11.6667 8.42945 11.6667 7.20427 11.6667H5.79573C4.57055 11.6667 3.60013 11.6667 2.84065 11.5646C2.05904 11.4595 1.4264 11.2381 0.927496 10.7392C0.428587 10.2403 0.207176 9.60763 0.10209 8.82602C-1.8696e-05 8.06654 -1.03145e-05 7.09612 2.15622e-07 5.87094V5.79572C-1.0394e-05 4.57055 -1.88549e-05 3.60013 0.10209 2.84065C0.207175 2.05904 0.428587 1.4264 0.927495 0.927496C1.4264 0.428587 2.05904 0.207176 2.84065 0.10209C3.60013 -1.8537e-05 4.57055 -1.01953e-05 5.79572 2.95093e-07L7.20428 2.15621e-07C8.42945 -1.0394e-05 9.39987 -1.88549e-05 10.1593 0.10209C10.941 0.207175 11.5736 0.428587 12.0725 0.927495C12.4134 1.26835 12.6258 1.67316 12.7596 2.14812C12.7866 2.24384 12.7113 2.33591 12.6119 2.33334L10.9293 2.33334C9.03825 2.33334 7.37142 3.82727 7.37142 5.83334C7.37142 7.8394 9.03825 9.33334 10.9293 9.33334L12.6119 9.33334ZM2.5 2.66667C2.22386 2.66667 2 2.89052 2 3.16667C2 3.44281 2.22386 3.66667 2.5 3.66667H5.16667C5.44281 3.66667 5.66667 3.44281 5.66667 3.16667C5.66667 2.89052 5.44281 2.66667 5.16667 2.66667H2.5Z" fill="#FAFAFA"/>
</svg>
