<svg width="14" height="10" viewBox="0 0 14 10" fill="none" xmlns="http://www.w3.org/2000/svg">
<path fill-rule="evenodd" clip-rule="evenodd" d="M5.77792 0.756283L5.44331 0.51948C4.96575 0.181502 4.39509 0 3.81003 0H3.40171C3.13225 0 2.86006 0.0169915 2.6061 0.107063C1.01763 0.670442 -0.0750078 2.73002 0.00402451 7.40175C0.0199482 8.34302 0.240199 9.38334 1.08949 9.78949C1.35414 9.91605 1.66445 10 2.01781 10C2.44182 10 2.77854 9.87913 3.03842 9.70879C3.31094 9.53018 3.55089 9.29804 3.79075 9.06598C4.08714 8.77923 4.3834 8.49261 4.74083 8.30726C5.13013 8.10538 5.56224 8 6.00077 8H7.33257C7.7711 8 8.2032 8.10538 8.5925 8.30726C8.94993 8.49261 9.24619 8.77923 9.54258 9.06598C9.78244 9.29804 10.0224 9.53018 10.2949 9.70879C10.5548 9.87913 10.8915 10 11.3155 10C11.6689 10 11.9792 9.91605 12.2438 9.78949C13.0931 9.38334 13.3134 8.34302 13.3293 7.40175C13.4083 2.73002 12.3157 0.670437 10.7272 0.107061C10.4733 0.0169914 10.2011 0 9.93162 0H9.52329C8.93824 0 8.36759 0.181502 7.89003 0.51948L7.55545 0.756275C7.29558 0.940193 6.98505 1.03896 6.66668 1.03896C6.34831 1.03896 6.03779 0.940196 5.77792 0.756283ZM9.83333 2.66667C10.1095 2.66667 10.3333 2.89052 10.3333 3.16667C10.3333 3.44281 10.1095 3.66667 9.83333 3.66667C9.55719 3.66667 9.33333 3.44281 9.33333 3.16667C9.33333 2.89052 9.55719 2.66667 9.83333 2.66667ZM3.66667 2.83333C3.94281 2.83333 4.16667 3.05719 4.16667 3.33333V3.83333H4.66667C4.94281 3.83333 5.16667 4.05719 5.16667 4.33333C5.16667 4.60948 4.94281 4.83333 4.66667 4.83333H4.16667V5.33333C4.16667 5.60948 3.94281 5.83333 3.66667 5.83333C3.39052 5.83333 3.16667 5.60948 3.16667 5.33333V4.83333H2.66667C2.39052 4.83333 2.16667 4.60948 2.16667 4.33333C2.16667 4.05719 2.39052 3.83333 2.66667 3.83333H3.16667V3.33333C3.16667 3.05719 3.39052 2.83333 3.66667 2.83333ZM11.3333 4.16667C11.3333 4.44281 11.1095 4.66667 10.8333 4.66667C10.5572 4.66667 10.3333 4.44281 10.3333 4.16667C10.3333 3.89052 10.5572 3.66667 10.8333 3.66667C11.1095 3.66667 11.3333 3.89052 11.3333 4.16667ZM8.83333 4.66667C9.10948 4.66667 9.33333 4.44281 9.33333 4.16667C9.33333 3.89052 9.10948 3.66667 8.83333 3.66667C8.55719 3.66667 8.33333 3.89052 8.33333 4.16667C8.33333 4.44281 8.55719 4.66667 8.83333 4.66667ZM10.3333 5.16667C10.3333 4.89052 10.1095 4.66667 9.83333 4.66667C9.55719 4.66667 9.33333 4.89052 9.33333 5.16667C9.33333 5.44281 9.55719 5.66667 9.83333 5.66667C10.1095 5.66667 10.3333 5.44281 10.3333 5.16667Z" fill="#FAFAFA"/>
</svg>
