<svg width="13" height="14" viewBox="0 0 13 14" fill="none" xmlns="http://www.w3.org/2000/svg">
<path fill-rule="evenodd" clip-rule="evenodd" d="M7.51921 0.101494C7.27231 0 6.95932 0 6.33333 0C5.70735 0 5.39435 0 5.14746 0.101494C4.81827 0.236819 4.55673 0.496385 4.42037 0.823089C4.35813 0.972227 4.33377 1.14567 4.32423 1.39866C4.31023 1.77045 4.1181 2.1146 3.79344 2.30062C3.46879 2.48664 3.07243 2.47969 2.74099 2.30584C2.51545 2.18753 2.35192 2.12175 2.19066 2.10068C1.83739 2.05452 1.48012 2.14953 1.19744 2.3648C0.985425 2.52625 0.828928 2.79526 0.515935 3.33329C0.202943 3.87131 0.046446 4.14032 0.0115647 4.40327C-0.0349436 4.75387 0.0607874 5.10844 0.277698 5.38899C0.376704 5.51704 0.515849 5.62468 0.731803 5.75935C1.04928 5.95732 1.25355 6.29457 1.25353 6.66668C1.25351 7.03875 1.04924 7.37595 0.731801 7.5739C0.515811 7.70858 0.376648 7.81624 0.277632 7.9443C0.0607216 8.22485 -0.0350094 8.57942 0.0114989 8.93002C0.0463802 9.19297 0.202877 9.46198 0.51587 10C0.828862 10.538 0.985359 10.807 1.19737 10.9685C1.48005 11.1838 1.83733 11.2788 2.19059 11.2326C2.35185 11.2115 2.51537 11.1458 2.74089 11.0275C3.07235 10.8536 3.46873 10.8467 3.79341 11.0327C4.11809 11.2187 4.31022 11.5629 4.32424 11.9347C4.33377 12.1877 4.35813 12.3611 4.42037 12.5102C4.55673 12.8369 4.81827 13.0965 5.14746 13.2318C5.39435 13.3333 5.70735 13.3333 6.33333 13.3333C6.95932 13.3333 7.27231 13.3333 7.51921 13.2318C7.8484 13.0965 8.10994 12.8369 8.2463 12.5102C8.30854 12.3611 8.3329 12.1877 8.34243 11.9346C8.35644 11.5629 8.54854 11.2187 8.87318 11.0327C9.19786 10.8466 9.59427 10.8536 9.92574 11.0274C10.1512 11.1457 10.3148 11.2115 10.476 11.2326C10.8293 11.2787 11.1865 11.1837 11.4692 10.9684C11.6812 10.807 11.8377 10.538 12.1507 9.99995C12.4637 9.46193 12.6202 9.19292 12.6551 8.92997C12.7016 8.57938 12.6059 8.2248 12.389 7.94426C12.29 7.8162 12.1508 7.70855 11.9348 7.57387C11.6174 7.37591 11.4131 7.03869 11.4131 6.66661C11.4132 6.29457 11.6174 5.95739 11.9348 5.75946C12.1508 5.62476 12.29 5.5171 12.389 5.38903C12.6059 5.10848 12.7017 4.75391 12.6552 4.40332C12.6203 4.14037 12.4638 3.87136 12.1508 3.33333C11.8378 2.79531 11.6813 2.5263 11.4693 2.36485C11.1866 2.14957 10.8293 2.05457 10.4761 2.10072C10.3148 2.12179 10.1513 2.18757 9.92578 2.30586C9.59432 2.47973 9.19793 2.48668 8.87325 2.30064C8.54857 2.1146 8.35644 1.77044 8.34243 1.39863C8.3329 1.14565 8.30854 0.97222 8.2463 0.823089C8.10994 0.496385 7.8484 0.236819 7.51921 0.101494ZM6.33333 8.66667C7.44631 8.66667 8.34856 7.77124 8.34856 6.66667C8.34856 5.5621 7.44631 4.66667 6.33333 4.66667C5.22035 4.66667 4.3181 5.5621 4.3181 6.66667C4.3181 7.77124 5.22035 8.66667 6.33333 8.66667Z" fill="#FAFAFA"/>
</svg>
