<svg width="14" height="14" viewBox="0 0 14 14" fill="none" xmlns="http://www.w3.org/2000/svg">
<path fill-rule="evenodd" clip-rule="evenodd" d="M0.976311 0.976311C0 1.95262 0 3.52397 0 6.66667C0 9.80936 0 11.3807 0.976311 12.357C1.95262 13.3333 3.52397 13.3333 6.66667 13.3333C9.80936 13.3333 11.3807 13.3333 12.357 12.357C13.3333 11.3807 13.3333 9.80936 13.3333 6.66667C13.3333 3.52397 13.3333 1.95262 12.357 0.976311C11.3807 0 9.80936 0 6.66667 0C3.52397 0 1.95262 0 0.976311 0.976311ZM10 6.83333C10.2761 6.83333 10.5 7.05719 10.5 7.33333V10.6667C10.5 10.9428 10.2761 11.1667 10 11.1667C9.72386 11.1667 9.5 10.9428 9.5 10.6667V7.33333C9.5 7.05719 9.72386 6.83333 10 6.83333ZM7.16667 2.66667C7.16667 2.39052 6.94281 2.16667 6.66667 2.16667C6.39052 2.16667 6.16667 2.39052 6.16667 2.66667V10.6667C6.16667 10.9428 6.39052 11.1667 6.66667 11.1667C6.94281 11.1667 7.16667 10.9428 7.16667 10.6667V2.66667ZM3.33333 4.16667C3.60948 4.16667 3.83333 4.39052 3.83333 4.66667V10.6667C3.83333 10.9428 3.60948 11.1667 3.33333 11.1667C3.05719 11.1667 2.83333 10.9428 2.83333 10.6667V4.66667C2.83333 4.39052 3.05719 4.16667 3.33333 4.16667Z" fill="#FAFAFA"/>
</svg>
