<svg width="74" height="32" viewBox="0 0 74 32" fill="none" xmlns="http://www.w3.org/2000/svg">
<path d="M33.0523 23.8208C30.4853 28.3838 25.7415 31.5736 20.219 32C23.8027 30.7111 26.8544 28.2684 28.8922 25.059L33.0523 23.8208ZM33.8329 9.76655C34.6695 11.7385 35.099 13.8588 35.0963 16.0004C35.0963 16.9722 35.009 17.9227 34.8433 18.8465H39.2316L37.9289 22.0895H30.39C30.7758 21.0885 31.0654 20.0527 31.2543 18.9966V18.8474H31.2801C31.7978 15.7908 31.4708 12.6517 30.333 9.76655H33.8329ZM10.3367 9.76655L9.03404 13.0087H3.25578V15.0358H7.9764L6.67462 18.2789H3.25578V22.0895H0V9.76655H10.3367ZM20.7554 22.0895H17.4996L14.1627 13.8073L10.825 22.0895H7.5692L12.5349 9.76655H15.7906L20.7554 22.0895ZM25.2461 9.76655C27.5833 9.79586 29.4633 11.6923 29.4642 14.0223C29.4642 15.5288 28.6659 16.9225 27.365 17.6873L29.139 22.0895H25.8832L24.348 18.2789H21.6616L20.3553 15.0358H25.1909C25.7344 15.0242 26.1728 14.589 26.1861 14.048C26.2004 13.5071 25.7852 13.0496 25.2435 13.0105L25.1909 13.0087H19.5383L18.232 9.76655H25.2461ZM52.7572 22.0895H49.5014L46.1637 13.8073L42.8268 22.0895H39.5719L44.5367 9.76655H47.7925L52.7572 22.0895ZM56.634 9.76655H56.6839C58.7769 9.7932 60.4645 11.4862 60.4645 13.5728C60.4645 14.0294 60.3834 14.4682 60.2346 14.8741C61.5355 15.5154 62.3606 16.8363 62.3615 18.2833C62.3615 20.369 60.673 22.0629 58.5809 22.0887H55.3679L54.1962 19.1893H58.531C59.0353 19.1893 59.4434 18.7843 59.4434 18.2833C59.4434 17.7832 59.0345 17.3773 58.531 17.3773H53.4656L52.2939 14.4788H56.6349C57.1384 14.4788 57.5473 14.072 57.5473 13.5728C57.5473 13.0869 57.1642 12.6916 56.683 12.6668L56.6349 12.6659H51.5686L50.3969 9.76655H56.634ZM71.1576 12.6659H66.102C65.7688 12.6525 65.4542 12.8222 65.284 13.1082C65.113 13.3934 65.113 13.7496 65.284 14.0356C65.4542 14.3216 65.7688 14.4913 66.102 14.4779H70.4279L70.4243 14.4859C72.4345 14.6139 73.9991 16.2758 74 18.2833C73.9991 20.3672 72.3178 22.0629 70.2283 22.0887H63.9547L65.1237 19.1893H70.1793C70.6703 19.1876 71.0703 18.7967 71.0828 18.3073C71.0953 17.8178 70.7166 17.4066 70.2256 17.379L70.1793 17.3773H65.8534L65.8561 17.3702C63.846 17.2422 62.2813 15.5803 62.2795 13.5728C62.2804 11.488 63.9627 9.79231 66.053 9.76655H72.3267L71.1576 12.6659ZM20.2163 0C25.6489 0.419264 30.3258 3.51045 32.9223 7.95181L28.7149 6.67003C26.678 3.59128 23.6966 1.25158 20.2163 0Z" fill="#FAFAFA"/>
</svg>
