<svg width="39" height="16" viewBox="0 0 39 16" fill="none" xmlns="http://www.w3.org/2000/svg">
<path d="M13.3797 0L11.6935 4.20962H4.21423V6.84149H10.3245L8.63952 11.0523H4.21423V16H0V0H13.3797ZM26.8654 16H22.6512L18.332 5.24645L14.0117 16H9.79745L16.2249 0H20.4391L26.8654 16ZM32.6782 0C35.7033 0.0380595 38.1368 2.5004 38.138 5.52555C38.138 7.48158 37.1046 9.29114 35.4207 10.2842L37.717 16H33.5028L31.5156 11.0523H28.0383L26.3476 6.84149H32.6066C33.3102 6.8265 33.8776 6.26137 33.8949 5.559C33.9134 4.85663 33.3759 4.26267 32.6747 4.21192L32.6066 4.20962H25.29L23.5992 0H32.6782Z" fill="white"/>
</svg>
